<svg xmlns="http://www.w3.org/2000/svg" xmlns:xlink="http://www.w3.org/1999/xlink" width="400" height="400" viewBox="0 0 400 400">
<rect data-name="background" width="100%" height="100%" fill="#ffffff"/><g data-name="watermark" class="watermark-logodesign" stroke="#ffffff" transform="translate(40, 280) scale(1.5) rotate(-45)" style="opacity:0.040000010281801224;"><path fill="#000000" d="M19.52,53.48c-10.32,0-17.72-7.64-17.72-17.32c0-10,8.2-17.76,18.32-17.76c10.36,0,17.76,7.48,17.76,17.56c0,6.24-3.56,9.84-7.84,9.84c-2.96,0-4.44-1.56-5.04-3.72c-1.48,2-3.64,3.08-6.16,3.08c-4.84,0-8.52-3.8-8.52-8.96c0-5.2,3.64-9,8.56-9c2.36,0,4.52,0.96,6,3l0-2.52l3.44,0l0,12.48c0,1.68,0.6,2.96,2.24,2.96c2.12,0,4.2-2.52,4.2-7.12c0-8.28-5.76-14.68-14.6-14.68c-8.48,0-15.24,6.44-15.24,14.84c0,8.16,6.24,14.4,14.68,14.4c2.88,0,6.04-0.68,8.2-2.4l0.8,2.88c-2.36,1.68-5.68,2.44-9.08,2.44z M19.36,41.92c3.24,0,5.64-2.4,5.64-5.76c0-3.32-2.36-5.68-5.64-5.68c-3.2,0-5.48,2.36-5.48,5.68s2.32,5.76,5.48,5.76z M46.84,42.4l14.72,0l0,4l-19.08,0l0-28l4.36,0l0,24z M74.8,46.92c-6.16,0-10.68-4.56-10.68-10.6c0-6,4.52-10.56,10.68-10.56s10.68,4.56,10.68,10.56c0,6.04-4.52,10.6-10.68,10.6z M74.8,43.12c3.84,0,6.6-2.92,6.6-6.76c0-3.88-2.76-6.8-6.6-6.8s-6.6,2.92-6.6,6.8c0,3.84,2.76,6.76,6.6,6.76z M105.68,26.28l4.2,0l0,19.4c0,5.6-4.08,9.64-10.2,9.64c-4.84,0-7.92-2.24-9.6-5.24l3.68-1.36c1.2,2,3.12,3.08,6,3.08c3.84,0,5.88-2.64,5.92-6.08l0-2.96c-1.56,2.12-4,3.4-7.08,3.4c-5.84,0-10.04-4.44-10.04-10.2c0-5.96,4.2-10.2,10.04-10.2c3.08,0,5.52,1.28,7.08,3.36l0-2.84z M99.24,42.4c3.72,0,6.56-2.72,6.56-6.44s-2.84-6.4-6.56-6.4c-3.88,0-6.56,2.68-6.56,6.4s2.68,6.44,6.56,6.44z M124.92,46.92c-6.16,0-10.68-4.56-10.68-10.6c0-6,4.52-10.56,10.68-10.56s10.68,4.56,10.68,10.56c0,6.04-4.52,10.6-10.68,10.6z M124.92,43.12c3.84,0,6.6-2.92,6.6-6.76c0-3.88-2.76-6.8-6.6-6.8s-6.6,2.92-6.6,6.8c0,3.84,2.76,6.76,6.6,6.76z M141.88,46.68c-1.56,0-2.76-1.2-2.76-2.72c0-1.48,1.2-2.68,2.76-2.68s2.76,1.2,2.76,2.68c0,1.52-1.2,2.72-2.76,2.72z M158.2,46.92c-5.68,0-10-4.52-10-10.6c0-6.04,4.32-10.56,10-10.56c3.24,0,5.72,1.4,7.24,3.56l0-3.04l4.16,0l0,20.12l-4.16,0l0-3.04c-1.52,2.16-4,3.56-7.24,3.56z M158.88,43.16c3.68,0,6.64-2.88,6.64-6.84c0-3.92-2.96-6.8-6.64-6.8c-3.84,0-6.56,2.84-6.56,6.8s2.72,6.84,6.56,6.84z M186.6,25.76c5.68,0,10.04,4.52,10.04,10.56c0,6.08-4.36,10.6-10.04,10.6c-3.2,0-5.68-1.4-7.2-3.56l0,11.44l-4.2,0l0-28.52l4.2,0l0,3.04c1.52-2.16,4-3.56,7.2-3.56z M185.92,43.16c3.84,0,6.56-2.88,6.56-6.84s-2.72-6.8-6.56-6.8c-3.68,0-6.64,2.88-6.64,6.8c0,3.96,2.96,6.84,6.64,6.84z M212.36,25.76c5.68,0,10.04,4.52,10.04,10.56c0,6.08-4.36,10.6-10.04,10.6c-3.2,0-5.68-1.4-7.2-3.56l0,11.44l-4.2,0l0-28.52l4.2,0l0,3.04c1.52-2.16,4-3.56,7.2-3.56z M211.68,43.16c3.84,0,6.56-2.88,6.56-6.84s-2.72-6.8-6.56-6.8c-3.68,0-6.64,2.88-6.64,6.8c0,3.96,2.96,6.84,6.64,6.84z"/></g><g data-name="icon" fill="#393E46" data="id:4595025" transform="translate(102.25408888154632,48.00686845820011) scale(0.006872625144556419)">
  <defs/><g><path class="fil0" d="M23390 13930c-10,314 -34,624 -71,928l456 4c9,-1 18,-1 27,-1 112,0 211,-39 281,-101 56,-50 93,-113 98,-181 0,-6 -1,-12 -1,-19l0 -326c0,-73 -37,-142 -97,-195 -74,-65 -177,-105 -292,-106l-401 -4zm-177 1591c-599,3063 -2619,5307 -5628,6244l0 640c0,494 -403,897 -897,897l-5202 0c-494,0 -897,-403 -897,-897l0 -640c-3009,-936 -5028,-3180 -5628,-6242l-319 4 0 1c14,0 30,0 0,0 -543,0 -1035,-406 -1043,-956l0 -11 -1 0c0,15 0,31 0,0l0 -326c0,-558 498,-957 1049,-966l221 -3c297,-531 1314,-971 2806,-1270 1644,-330 3910,-533 6409,-533 439,0 4154,110 6691,619 1259,252 2253,628 2534,1184l489 5c552,5 1051,408 1051,966l0 326c0,13 -1,25 -2,38 -11,259 -132,491 -322,660 -191,169 -471,283 -754,268l-556 -5zm-18359 -661c-38,-305 -62,-614 -71,-928l-128 2c-116,2 -220,43 -294,108 -60,52 -97,121 -97,194 0,0 2,438 -1,326l0 0c2,180 193,300 379,300 34,0 16,1 0,1l0 0 213 -3zm-591 -299c0,-16 -1,-32 0,0l0 0zm-665 0c0,-24 -1,-13 -1,0l1 0zm1043 301c-15,0 -28,1 0,0l0 0zm0 665c-22,0 -12,1 0,1l0 -1zm6487 -8730c0,-184 149,-333 333,-333 184,0 333,149 333,333 0,102 109,264 218,425 166,246 332,492 332,798 0,305 -166,551 -332,798 -109,161 -218,323 -218,425 0,102 109,264 218,425 166,246 332,492 332,798 0,184 -149,333 -333,333 -184,0 -333,-149 -333,-333 0,-102 -109,-264 -218,-425 -166,-246 -332,-492 -332,-798 0,-305 166,-551 332,-798 109,-161 218,-323 218,-425 0,-102 -109,-264 -218,-425 -166,-246 -332,-492 -332,-798zm4013 -4c0,-184 149,-333 333,-333 184,0 333,149 333,333 0,102 109,264 218,425 166,246 332,492 332,798 0,305 -166,551 -332,798 -109,161 -218,323 -218,425 0,102 109,264 218,425 166,246 332,492 332,798 0,184 -149,333 -333,333 -184,0 -333,-149 -333,-333 0,-102 -109,-264 -218,-425 -166,-246 -332,-492 -332,-798 0,-305 166,-551 332,-798 109,-161 218,-323 218,-425 0,-102 -109,-264 -218,-425 -166,-246 -332,-492 -332,-798zm-2102 -1317c0,-184 149,-333 333,-333 184,0 333,149 333,333 0,173 157,405 313,638 214,317 428,634 428,1010 0,376 -214,693 -428,1010 -157,232 -313,464 -313,638 0,173 157,405 313,638 214,317 428,634 428,1010 0,184 -149,333 -333,333 -184,0 -333,-149 -333,-333 0,-173 -157,-405 -313,-638 -214,-317 -428,-634 -428,-1010 0,-376 214,-693 428,-1010 157,-232 313,-464 313,-638 0,-173 -157,-405 -313,-638 -214,-317 -428,-634 -428,-1010zm1682 7043c91,-159 294,-214 453,-122 159,91 214,294 122,453l-169 293c-48,84 -127,139 -215,158l0 0 -188 43 -96 166c-48,84 -127,139 -215,158l0 0 -330 75c-179,40 -357,-72 -397,-251 -40,-179 72,-357 251,-397l188 -43 88 -152c43,-85 123,-150 223,-173l188 -43 96 -166zm1800 866c-91,-159 -37,-362 122,-453 159,-91 362,-37 453,122l96 166 188 43c100,23 179,88 223,173l88 152 188 43c179,40 292,218 251,397 -40,179 -218,292 -397,251l-330 -75 0 0c-87,-20 -167,-75 -215,-158l-96 -166 -188 -43 0 0c-87,-20 -167,-75 -215,-158l-169 -293zm-6307 -79c-91,-159 -37,-362 122,-453 159,-91 362,-37 453,122l96 166 188 43c100,23 179,88 223,173l88 152 188 43c179,40 292,218 251,397 -40,179 -218,292 -397,251l-330 -75 0 0c-87,-20 -167,-75 -215,-158l-96 -166 -188 -43 0 0c-87,-20 -167,-75 -215,-158l-169 -293zm8875 -567c172,0 311,139 311,311 0,172 -139,311 -311,311 -172,0 -311,-139 -311,-311 0,-172 139,-311 311,-311zm-6406 17c172,0 311,139 311,311 0,172 -139,311 -311,311 -172,0 -311,-139 -311,-311 0,-172 139,-311 311,-311zm587 1127c172,0 311,139 311,311 0,172 -139,311 -311,311 -172,0 -311,-139 -311,-311 0,-172 139,-311 311,-311zm2490 0c172,0 311,139 311,311 0,172 -139,311 -311,311 -172,0 -311,-139 -311,-311 0,-172 139,-311 311,-311zm-6685 -658c172,0 311,139 311,311 0,172 -139,311 -311,311 -172,0 -311,-139 -311,-311 0,-172 139,-311 311,-311zm7843 8722c-1764,419 -3900,419 -5664,0l0 458c0,126 105,231 231,231l5202 0c126,0 231,-105 231,-231l0 -458zm-11474 -8352c0,315 902,653 2360,945 3456,693 9102,693 12558,0 1458,-292 2360,-630 2360,-945 0,-332 -891,-622 -2078,-860 -2483,-498 -6129,-606 -6560,-606 -2456,0 -4675,199 -6279,520 -1458,292 -2360,630 -2360,945zm39 880c177,1957 955,3700 2321,4968 1438,1335 3536,2152 6282,2152 2747,0 4844,-817 6282,-2152 1367,-1269 2145,-3013 2321,-4973 -502,289 -1255,535 -2199,724 -3542,710 -9276,710 -12818,0 -938,-188 -1688,-432 -2190,-719z"/></g>
  </g><g data-name="business_name" fill="#393E46" data="id:223" transform="translate(61.540145263350254,172.4187963518687) scale(2.6438374006937626)"><path d="M6.12,29.52c1.44-0.8,3.08,2,1.2,2.56c-1.72,0.44-3.96,0.88-4.28,0.92c0.24,0.04,4.84,1,4.84,4.4c0,1.88-1.48,2.96-3.2,3.32c-2.08,0.36-4.16-0.68-4.16-3.12c0-2.04,3.24-2.4,3-0.8c-0.24,1.64,0.32,2.36,0.76,2.36c1.12,0,1.36-1.64,0.16-3.24c-1-1.36-3-2.24-3.88-2.4c-0.92-0.2-1.12-2.6,0.52-2.6c1.6,0,3.6-0.56,5.04-1.4z M8.64,26.88l1.08,0c0-0.36,0.04-0.72,0.04-1c0-2.52,3.36-1.88,3.04-0.2l-0.2,1.04l0.96,0c2,0,1.8,1.6,0.08,1.6l-1.2,0c-0.4,3.84-0.8,10.04-0.04,10.04c0.64,0,2.52-4.56,2.8-5.44c0.24-0.96,1.68-0.6,1.4,0.32c-0.68,2.12-1.96,7.52-5.08,7.52s-2.28-7.68-1.92-12.36l-0.96,0c-1.68,0-1.88-1.52,0-1.52z M21.8,33c-0.8,1.12-2.8,1.48-4,1.56c-0.28,2.24-0.16,4.4,0.88,4.72c2.16,0.64,5-5.24,5.32-6.32c0.28-0.92,1.6-0.68,1.36,0.28c-0.28,1.04-2.12,7.88-7,7.88c-5.8,0-3.48-13.56,0.48-13.56c2.6,0,4,4.04,2.96,5.44z M19.32,29.44c-0.36,0.16-0.84,1.52-1.2,3.2c0.6,0,1.24-0.12,1.52-0.52c0.44-0.6,0.12-2.88-0.32-2.68z M24.68,23.28c0-2.52,3.4-1.92,3.08-0.2c-0.36,1.96-1.88,16.28-0.36,16.28c0.6,0,2.48-5.56,2.76-6.44c0.24-0.96,1.68-0.6,1.4,0.32c-0.68,2.12-1.96,8.56-5.08,8.56c-4.28,0-1.8-15.08-1.8-18.52z M30.84,23.28c0-2.52,3.4-1.92,3.08-0.2c-0.36,1.96-1.88,16.28-0.36,16.28c0.6,0,2.48-5.56,2.76-6.44c0.24-0.96,1.68-0.6,1.4,0.32c-0.68,2.12-1.96,8.56-5.08,8.56c-4.28,0-1.8-15.08-1.8-18.52z M41.04,29.08c0.76,0.16,1.32,0.76,1.68,1.4c0.88-0.96,2.84-0.16,2.64,1.2c-0.4,1.96-0.88,6.32,0,6.32c0.64,0,2-3.92,2.24-5.04c0.28-1.04,1.76-0.68,1.44,0.28c-0.28,1-1.84,7.52-4.72,6.72c-0.84-0.24-1.36-0.72-1.68-1.4c-0.44,1.28-1.16,2.4-2.32,2.88c-0.56,0.2-1.04,0.24-1.48,0.12c-4.6-1.28-3.64-13.56,2.2-12.48z M42.08,33.12c-0.12-0.88-0.4-1.96-0.96-2.04c-2.56-0.48-3.44,8.48-1.4,8.8c1.36,0.16,2.64-3.8,2.36-6.76z M48.84,33.48c-0.2,0.88-1.72,0.68-1.32-0.32l0.24-0.68c-1-1-0.04-2.76,1.2-2.76c1.12,0,1.12,1,0.68,2c0.68,0.36,3.2-0.88,2.76,1.04c-0.44,1.96-1.08,5.8-0.16,5.8c0.6,0,2.28-4.32,2.52-5.6c0.2-1.04,1.64-0.88,1.48,0.16c-0.16,0.88-1.68,7.52-5.04,7.36c-2.52-0.12-2.24-4.92-1.4-7.48c-0.24,0.04-0.52,0.04-0.8,0.04c-0.08,0.16-0.12,0.28-0.16,0.44z  M65.72,21.8c1.84-0.12,2.64,1.72,2.4,3c-0.24,1.52-2.64,1.76-2.4,0.84c0.44-1.76,0.6-2.56,0-2.56c-0.48,0-0.76,1-0.88,3.68c0.52-0.04,1-0.04,1.4-0.04c2.04,0,1.84,1.6,0.16,1.6c-0.44,0-1,0-1.64,0.04c-0.08,2.64-0.04,6.44,0,11.76c0,1.96-3.12,2.64-3.08,1.28c0.16-5.84,0.24-10.04,0.44-13l-0.72,0c-1.72,0-1.88-1.52,0-1.52l0.88,0c0.44-3.72,1.32-4.92,3.44-5.08z  M70.56,38.96c-5.92,0-4.32-10.24,0.4-9.96c5.56,0.32,4.96,9.96-0.4,9.96z M71.08,37.16c1.76,0.2,1.56-6.64-0.24-6.68c-1.56-0.04-1.84,6.48,0.24,6.68z M79.48,38.96c-5.92,0-4.32-10.24,0.4-9.96c5.56,0.32,4.96,9.96-0.4,9.96z M80,37.16c1.76,0.2,1.56-6.64-0.24-6.68c-1.56-0.04-1.84,6.48,0.24,6.68z M91.56,22.76c0-2.52,3.36-1.88,3.04-0.2c-0.36,1.92-1.84,15.68-0.32,15.68c0.92,0,2.2-4.24,2.44-5.28c0.28-1.04,1.64-0.76,1.44,0.32c-0.16,1.08-1.44,7.08-4.8,7.08c-1.2,0-1.84-1.08-2.2-2.68c-0.44,1-1.12,1.88-2.2,2.24c-0.56,0.2-1.08,0.24-1.52,0.08c-4.6-1.12-3.68-11.88,2.16-10.88c0.56,0.08,1.04,0.4,1.4,0.84c0.2-3.04,0.56-5.88,0.56-7.2z M90.64,32.64c-0.12-0.72-0.36-1.68-0.96-1.76c-2.56-0.44-3.4,7.4-1.36,7.68c1.36,0.16,2.64-3.32,2.32-5.92z M102.84,29.52c1.44-0.8,3.08,2,1.2,2.56c-1.72,0.44-3.96,0.88-4.28,0.92c0.24,0.04,4.84,1,4.84,4.4c0,1.88-1.48,2.96-3.2,3.32c-2.08,0.36-4.16-0.68-4.16-3.12c0-2.04,3.24-2.4,3-0.8c-0.24,1.64,0.32,2.36,0.76,2.36c1.12,0,1.36-1.64,0.16-3.24c-1-1.36-3-2.24-3.88-2.4c-0.92-0.2-1.12-2.6,0.52-2.6c1.6,0,3.6-0.56,5.04-1.4z"/></g><g data-name="slogan" fill="#393E46" data="id:310" transform="translate(102.14681698066661,282.8258279423747) scale(0.5939134708047912)"><path d="M4,48l0-18.68l-2.88,0l0-2.16l2.88,0l0-0.56q0-2.56,0.74-4.4t2.12-2.82t3.26-0.98q1.24,0,2.4,0.36t2,0.96l-0.84,1.96q-0.52-0.44-1.36-0.68t-1.68-0.24q-1.88,0-2.9,1.48t-1.02,4.28l0,0.64l5.76,0l0,2.16l-5.76,0l0,18.68l-2.72,0z M25.08,48.4q-2.24,0-4.14-0.86t-3.28-2.36t-2.14-3.44t-0.76-4.1q0-2.24,0.76-4.18t2.16-3.44t3.3-2.36t4.14-0.86t4.12,0.86t3.28,2.36t2.16,3.44t0.76,4.18q0,2.16-0.76,4.1t-2.14,3.44t-3.28,2.36t-4.18,0.86z M17.52,37.68q0,2.32,1.02,4.22t2.74,3t3.8,1.1t3.8-1.12t2.76-3.06t1.04-4.22q0-2.32-1.04-4.24t-2.76-3.04t-3.8-1.12t-3.78,1.16t-2.74,3.06t-1.04,4.26z M48.88,48.4q-2.24,0-4.14-0.86t-3.28-2.36t-2.14-3.44t-0.76-4.1q0-2.24,0.76-4.18t2.16-3.44t3.3-2.36t4.14-0.86t4.12,0.86t3.28,2.36t2.16,3.44t0.76,4.18q0,2.16-0.76,4.1t-2.14,3.44t-3.28,2.36t-4.18,0.86z M41.32,37.68q0,2.32,1.02,4.22t2.74,3t3.8,1.1t3.8-1.12t2.76-3.06t1.04-4.22q0-2.32-1.04-4.24t-2.76-3.04t-3.8-1.12t-3.78,1.16t-2.74,3.06t-1.04,4.26z M62.4,37.64q0-2.96,1.22-5.42t3.38-3.94t4.92-1.48q2.6,0,4.66,1.38t3.22,3.34l0-12.72l2.72,0l0,25.92q0,0.56,0.24,0.82t0.72,0.3l0,2.16q-0.8,0.12-1.24,0.08q-0.84-0.04-1.48-0.68t-0.64-1.4l0-2.04q-1.24,2.04-3.36,3.24t-4.4,1.2q-2.16,0-3.98-0.88t-3.16-2.4t-2.08-3.46t-0.74-4.02z M79.8,40.84l0-6.44q-0.52-1.44-1.68-2.62t-2.62-1.88t-2.9-0.7q-1.68,0-3.04,0.7t-2.34,1.9t-1.5,2.72t-0.52,3.12q0,1.68,0.58,3.2t1.66,2.7t2.48,1.82t3.04,0.64q1.04,0,2.16-0.4t2.14-1.1t1.7-1.66t0.84-2z  M99.88,48l0-18.68l-2.88,0l0-2.16l2.88,0l0-0.56q0-2.56,0.74-4.4t2.12-2.82t3.26-0.98q1.24,0,2.4,0.36t2,0.96l-0.84,1.96q-0.52-0.44-1.36-0.68t-1.68-0.24q-1.88,0-2.9,1.48t-1.02,4.28l0,0.64l5.76,0l0,2.16l-5.76,0l0,18.68l-2.72,0z M120.96,48.4q-2.24,0-4.14-0.86t-3.28-2.36t-2.14-3.44t-0.76-4.1q0-2.24,0.76-4.18t2.16-3.44t3.3-2.36t4.14-0.86t4.12,0.86t3.28,2.36t2.16,3.44t0.76,4.18q0,2.16-0.76,4.1t-2.14,3.44t-3.28,2.36t-4.18,0.86z M113.4,37.68q0,2.32,1.02,4.22t2.74,3t3.8,1.1t3.8-1.12t2.76-3.06t1.04-4.22q0-2.32-1.04-4.24t-2.76-3.04t-3.8-1.12t-3.78,1.16t-2.74,3.06t-1.04,4.26z M146.28,29.56q-2.72,0.08-4.78,1.52t-2.9,3.96l0,12.96l-2.72,0l0-20.84l2.56,0l0,5q1.08-2.2,2.86-3.56t3.78-1.52q0.4-0.04,0.7-0.04t0.5,0.04l0,2.48z  M161.32,54.4q0.56,0.04,1.08,0.06t0.76-0.06q0.48-0.08,0.92-0.56t1.04-1.84t1.68-4l-9.08-20.84l2.88,0l7.64,18.04l7.04-18.04l2.72,0l-10.8,26.88q-0.28,0.76-0.84,1.42t-1.38,1.04t-2.02,0.42q-0.36,0.04-0.74,0.02t-0.9-0.1l0-2.44z M190.68,48.4q-2.24,0-4.14-0.86t-3.28-2.36t-2.14-3.44t-0.76-4.1q0-2.24,0.76-4.18t2.16-3.44t3.3-2.36t4.14-0.86t4.12,0.86t3.28,2.36t2.16,3.44t0.76,4.18q0,2.16-0.76,4.1t-2.14,3.44t-3.28,2.36t-4.18,0.86z M183.12,37.68q0,2.32,1.02,4.22t2.74,3t3.8,1.1t3.8-1.12t2.76-3.06t1.04-4.22q0-2.32-1.04-4.24t-2.76-3.04t-3.8-1.12t-3.78,1.16t-2.74,3.06t-1.04,4.26z M205.4,39.4l0-12.24l2.72,0l0,11.76q0,3.56,1.22,5.32t3.62,1.76q1.6,0,3.1-0.7t2.66-2t1.76-3.02l0-13.12l2.72,0l0,17.56q0,0.56,0.24,0.82t0.72,0.3l0,2.16q-0.48,0.04-0.76,0.06t-0.52,0.02q-0.8-0.08-1.38-0.64t-0.62-1.36l-0.08-2.8q-1.36,2.4-3.7,3.76t-5.06,1.36q-3.28,0-4.96-2.28t-1.68-6.72z M239.76,29.56q-2.72,0.08-4.78,1.52t-2.9,3.96l0,12.96l-2.72,0l0-20.84l2.56,0l0,5q1.08-2.2,2.86-3.56t3.78-1.52q0.4-0.04,0.7-0.04t0.5,0.04l0,2.48z  M260.44,48.4q-2.56,0-4.76-0.84t-3.8-2.56l1.12-1.92q1.76,1.64,3.54,2.38t3.78,0.74q2.44,0,3.96-0.98t1.52-2.82q0-1.24-0.74-1.9t-2.12-1.08t-3.3-0.9q-2.16-0.6-3.62-1.26t-2.2-1.68t-0.74-2.66q0-2.04,1.02-3.38t2.8-2.04t3.98-0.7q2.4,0,4.24,0.76t3,2.12l-1.32,1.84q-1.12-1.28-2.66-1.9t-3.42-0.62q-1.28,0-2.44,0.34t-1.9,1.12t-0.74,2.14q0,1.12,0.56,1.74t1.68,1.04t2.76,0.9q2.36,0.64,4.12,1.3t2.72,1.7t0.96,2.92q0,2.92-2.2,4.56t-5.8,1.64z M281.8,48.4q-2.24,0-4.14-0.86t-3.28-2.36t-2.14-3.44t-0.76-4.1q0-2.24,0.76-4.18t2.16-3.44t3.3-2.36t4.14-0.86t4.12,0.86t3.28,2.36t2.16,3.44t0.76,4.18q0,2.16-0.76,4.1t-2.14,3.44t-3.28,2.36t-4.18,0.86z M274.24,37.68q0,2.32,1.02,4.22t2.74,3t3.8,1.1t3.8-1.12t2.76-3.06t1.04-4.22q0-2.32-1.04-4.24t-2.76-3.04t-3.8-1.12t-3.78,1.16t-2.74,3.06t-1.04,4.26z M296.52,39.4l0-12.24l2.72,0l0,11.76q0,3.56,1.22,5.32t3.62,1.76q1.6,0,3.1-0.7t2.66-2t1.76-3.02l0-13.12l2.72,0l0,17.56q0,0.56,0.24,0.82t0.72,0.3l0,2.16q-0.48,0.04-0.76,0.06t-0.52,0.02q-0.8-0.08-1.38-0.64t-0.62-1.36l-0.08-2.8q-1.36,2.4-3.7,3.76t-5.06,1.36q-3.28,0-4.96-2.28t-1.68-6.72z M320.6,18.8l2.72,0l0,24.48q0,1.56,0.56,2.04t1.36,0.48q0.72,0,1.44-0.16t1.24-0.32l0.48,2.2q-0.76,0.32-1.86,0.52t-1.9,0.2q-1.84,0-2.94-1.08t-1.1-2.96l0-25.4z"/></g></svg>